<svg width="16" height="16" viewBox="0 0 16 16" fill="none" xmlns="http://www.w3.org/2000/svg">
<path d="M14.0002 8C13.8234 8 13.6538 8.07024 13.5288 8.19526C13.4037 8.32029 13.3335 8.48986 13.3335 8.66667V12.6667C13.3335 12.8435 13.2633 13.013 13.1382 13.1381C13.0132 13.2631 12.8436 13.3333 12.6668 13.3333H3.3335C3.15669 13.3333 2.98712 13.2631 2.86209 13.1381C2.73707 13.013 2.66683 12.8435 2.66683 12.6667V3.33333C2.66683 3.15652 2.73707 2.98695 2.86209 2.86193C2.98712 2.7369 3.15669 2.66667 3.3335 2.66667H7.3335C7.51031 2.66667 7.67988 2.59643 7.8049 2.4714C7.92992 2.34638 8.00016 2.17681 8.00016 2C8.00016 1.82319 7.92992 1.65362 7.8049 1.5286C7.67988 1.40357 7.51031 1.33333 7.3335 1.33333H3.3335C2.80306 1.33333 2.29436 1.54405 1.91928 1.91912C1.54421 2.29419 1.3335 2.8029 1.3335 3.33333V12.6667C1.3335 13.1971 1.54421 13.7058 1.91928 14.0809C2.29436 14.456 2.80306 14.6667 3.3335 14.6667H12.6668C13.1973 14.6667 13.706 14.456 14.081 14.0809C14.4561 13.7058 14.6668 13.1971 14.6668 12.6667V8.66667C14.6668 8.48986 14.5966 8.32029 14.4716 8.19526C14.3465 8.07024 14.177 8 14.0002 8ZM4.00016 8.50667V11.3333C4.00016 11.5101 4.0704 11.6797 4.19543 11.8047C4.32045 11.9298 4.49002 12 4.66683 12H7.4935C7.58123 12.0005 7.66821 11.9837 7.74943 11.9505C7.83066 11.9173 7.90454 11.8685 7.96683 11.8067L12.5802 7.18667L14.4735 5.33333C14.536 5.27136 14.5856 5.19762 14.6194 5.11638C14.6533 5.03515 14.6707 4.94801 14.6707 4.86C14.6707 4.77199 14.6533 4.68485 14.6194 4.60362C14.5856 4.52238 14.536 4.44864 14.4735 4.38667L11.6468 1.52667C11.5849 1.46418 11.5111 1.41458 11.4299 1.38074C11.3486 1.34689 11.2615 1.32947 11.1735 1.32947C11.0855 1.32947 10.9984 1.34689 10.9171 1.38074C10.8359 1.41458 10.7621 1.46418 10.7002 1.52667L8.82016 3.41333L4.1935 8.03333C4.13171 8.09563 4.08283 8.1695 4.04965 8.25073C4.01647 8.33195 3.99966 8.41893 4.00016 8.50667ZM11.1735 2.94L13.0602 4.82667L12.1135 5.77333L10.2268 3.88667L11.1735 2.94ZM5.3335 8.78L9.28683 4.82667L11.1735 6.71333L7.22016 10.6667H5.3335V8.78Z" fill="#18191F"/>
</svg>
