<svg width="16" height="16" viewBox="0 0 16 16" fill="none" xmlns="http://www.w3.org/2000/svg">
<path d="M12.1999 5.72667L12.8065 5.12667C12.9321 5.00114 13.0026 4.83087 13.0026 4.65334C13.0026 4.4758 12.9321 4.30554 12.8065 4.18001C12.681 4.05447 12.5107 3.98394 12.3332 3.98394C12.1557 3.98394 11.9854 4.05447 11.8599 4.18001L11.2599 4.78667C10.3256 4.06391 9.17775 3.67176 7.99652 3.67176C6.81529 3.67176 5.66749 4.06391 4.73319 4.78667L4.12652 4.17334C4.0001 4.0478 3.82899 3.97763 3.65083 3.97825C3.47267 3.97888 3.30206 4.05025 3.17652 4.17667C3.05099 4.30309 2.98081 4.4742 2.98144 4.65236C2.98206 4.83052 3.05343 5.00114 3.17985 5.12667L3.79319 5.73334C3.06187 6.66504 2.66505 7.81557 2.66652 9.00001C2.66434 9.85029 2.8655 10.6888 3.2532 11.4455C3.64091 12.2023 4.20393 12.8553 4.89532 13.3503C5.5867 13.8452 6.3864 14.1677 7.22773 14.2908C8.06906 14.4139 8.92762 14.3341 9.73182 14.0579C10.536 13.7818 11.2625 13.3174 11.8508 12.7034C12.4391 12.0895 12.872 11.3438 13.1135 10.5285C13.355 9.71326 13.3981 8.85207 13.2392 8.01677C13.0802 7.18147 12.7239 6.39627 12.1999 5.72667ZM7.99986 13C7.20873 13 6.43537 12.7654 5.77757 12.3259C5.11978 11.8864 4.60709 11.2616 4.30434 10.5307C4.00159 9.79983 3.92237 8.99557 4.07671 8.21964C4.23105 7.44372 4.61202 6.73099 5.17143 6.17158C5.73084 5.61217 6.44357 5.2312 7.21949 5.07686C7.99542 4.92252 8.79968 5.00174 9.53059 5.30449C10.2615 5.60724 10.8862 6.11993 11.3257 6.77772C11.7653 7.43552 11.9999 8.20888 11.9999 9.00001C11.9999 10.0609 11.5784 11.0783 10.8283 11.8284C10.0781 12.5786 9.06072 13 7.99986 13ZM6.66652 3.00001H9.33319C9.51 3.00001 9.67957 2.92977 9.80459 2.80474C9.92962 2.67972 9.99986 2.51015 9.99986 2.33334C9.99986 2.15653 9.92962 1.98696 9.80459 1.86193C9.67957 1.73691 9.51 1.66667 9.33319 1.66667H6.66652C6.48971 1.66667 6.32014 1.73691 6.19512 1.86193C6.07009 1.98696 5.99985 2.15653 5.99985 2.33334C5.99985 2.51015 6.07009 2.67972 6.19512 2.80474C6.32014 2.92977 6.48971 3.00001 6.66652 3.00001ZM8.66652 7.00001C8.66652 6.82319 8.59628 6.65363 8.47126 6.5286C8.34624 6.40358 8.17667 6.33334 7.99986 6.33334C7.82304 6.33334 7.65347 6.40358 7.52845 6.5286C7.40343 6.65363 7.33319 6.82319 7.33319 7.00001V8.26001C7.18223 8.39502 7.07584 8.57269 7.02807 8.7695C6.9803 8.96631 6.99342 9.17299 7.06568 9.36218C7.13795 9.55138 7.26595 9.71417 7.43277 9.82902C7.59958 9.94387 7.79733 10.0054 7.99986 10.0054C8.20238 10.0054 8.40013 9.94387 8.56694 9.82902C8.73376 9.71417 8.86176 9.55138 8.93403 9.36218C9.00629 9.17299 9.01941 8.96631 8.97164 8.7695C8.92387 8.57269 8.81748 8.39502 8.66652 8.26001V7.00001Z" fill="#FE6565"/>
</svg>
