<svg width="16" height="16" viewBox="0 0 16 16" fill="current" xmlns="http://www.w3.org/2000/svg">
<path d="M8.6665 9.33333H5.99984C5.82303 9.33333 5.65346 9.40357 5.52843 9.52859C5.40341 9.65361 5.33317 9.82318 5.33317 9.99999C5.33317 10.1768 5.40341 10.3464 5.52843 10.4714C5.65346 10.5964 5.82303 10.6667 5.99984 10.6667H8.6665C8.84332 10.6667 9.01288 10.5964 9.13791 10.4714C9.26293 10.3464 9.33317 10.1768 9.33317 9.99999C9.33317 9.82318 9.26293 9.65361 9.13791 9.52859C9.01288 9.40357 8.84332 9.33333 8.6665 9.33333ZM11.3332 2.66666H10.5465C10.409 2.27763 10.1545 1.94066 9.81788 1.70195C9.4813 1.46325 9.07913 1.33449 8.6665 1.33333H7.33317C6.92054 1.33449 6.51837 1.46325 6.18179 1.70195C5.84522 1.94066 5.59071 2.27763 5.45317 2.66666H4.6665C4.13607 2.66666 3.62736 2.87738 3.25229 3.25245C2.87722 3.62752 2.6665 4.13623 2.6665 4.66666V12.6667C2.6665 13.1971 2.87722 13.7058 3.25229 14.0809C3.62736 14.4559 4.13607 14.6667 4.6665 14.6667H11.3332C11.8636 14.6667 12.3723 14.4559 12.7474 14.0809C13.1225 13.7058 13.3332 13.1971 13.3332 12.6667V4.66666C13.3332 4.13623 13.1225 3.62752 12.7474 3.25245C12.3723 2.87738 11.8636 2.66666 11.3332 2.66666ZM6.6665 3.33333C6.6665 3.15652 6.73674 2.98695 6.86177 2.86192C6.98679 2.7369 7.15636 2.66666 7.33317 2.66666H8.6665C8.84332 2.66666 9.01288 2.7369 9.13791 2.86192C9.26293 2.98695 9.33317 3.15652 9.33317 3.33333V3.99999H6.6665V3.33333ZM11.9998 12.6667C11.9998 12.8435 11.9296 13.013 11.8046 13.1381C11.6796 13.2631 11.51 13.3333 11.3332 13.3333H4.6665C4.48969 13.3333 4.32012 13.2631 4.1951 13.1381C4.07008 13.013 3.99984 12.8435 3.99984 12.6667V4.66666C3.99984 4.48985 4.07008 4.32028 4.1951 4.19526C4.32012 4.07023 4.48969 3.99999 4.6665 3.99999H5.33317V4.66666C5.33317 4.84347 5.40341 5.01304 5.52843 5.13807C5.65346 5.26309 5.82303 5.33333 5.99984 5.33333H9.99984C10.1766 5.33333 10.3462 5.26309 10.4712 5.13807C10.5963 5.01304 10.6665 4.84347 10.6665 4.66666V3.99999H11.3332C11.51 3.99999 11.6796 4.07023 11.8046 4.19526C11.9296 4.32028 11.9998 4.48985 11.9998 4.66666V12.6667ZM9.99984 6.66666H5.99984C5.82303 6.66666 5.65346 6.7369 5.52843 6.86192C5.40341 6.98695 5.33317 7.15652 5.33317 7.33333C5.33317 7.51014 5.40341 7.67971 5.52843 7.80473C5.65346 7.92976 5.82303 7.99999 5.99984 7.99999H9.99984C10.1766 7.99999 10.3462 7.92976 10.4712 7.80473C10.5963 7.67971 10.6665 7.51014 10.6665 7.33333C10.6665 7.15652 10.5963 6.98695 10.4712 6.86192C10.3462 6.7369 10.1766 6.66666 9.99984 6.66666Z" fill="current"/>
</svg>
