<svg width="16" height="16" viewBox="0 0 16 16" fill="current" xmlns="http://www.w3.org/2000/svg">
<path d="M13.3332 7.00001C13.1564 7.00001 12.9868 7.07024 12.8618 7.19527C12.7367 7.32029 12.6665 7.48986 12.6665 7.66667V12.3333C12.6665 12.5101 12.5963 12.6797 12.4712 12.8047C12.3462 12.9298 12.1766 13 11.9998 13H2.6665C2.48969 13 2.32012 12.9298 2.1951 12.8047C2.07008 12.6797 1.99984 12.5101 1.99984 12.3333V7.00001C1.99984 6.82319 2.07008 6.65363 2.1951 6.5286C2.32012 6.40358 2.48969 6.33334 2.6665 6.33334H3.99984C4.14521 6.34093 4.28908 6.30072 4.40946 6.21886C4.52984 6.137 4.62012 6.01799 4.6665 5.88L5.0265 4.78667C5.07123 4.65426 5.15644 4.53925 5.27008 4.4579C5.38373 4.37655 5.52007 4.33298 5.65984 4.33334H9.33317C9.50998 4.33334 9.67955 4.2631 9.80457 4.13808C9.9296 4.01305 9.99984 3.84348 9.99984 3.66667C9.99984 3.48986 9.9296 3.32029 9.80457 3.19527C9.67955 3.07024 9.50998 3.00001 9.33317 3.00001H5.6265C5.20754 3.00079 4.79939 3.13313 4.45968 3.37834C4.11997 3.62356 3.86584 3.96926 3.73317 4.36667L3.51984 5.03334H2.6665C2.13607 5.03334 1.62736 5.24405 1.25229 5.61912C0.877218 5.9942 0.666504 6.50291 0.666504 7.03334V12.3667C0.666504 12.8971 0.877218 13.4058 1.25229 13.7809C1.62736 14.156 2.13607 14.3667 2.6665 14.3667H11.9998C12.5303 14.3667 13.039 14.156 13.4141 13.7809C13.7891 13.4058 13.9998 12.8971 13.9998 12.3667V7.70001C14.0044 7.60969 13.9905 7.51941 13.959 7.43463C13.9275 7.34986 13.8791 7.27238 13.8168 7.2069C13.7544 7.14142 13.6794 7.08931 13.5962 7.05374C13.5131 7.01818 13.4236 6.99989 13.3332 7.00001ZM7.33317 6.33334C6.80575 6.33334 6.29018 6.48974 5.85165 6.78275C5.41312 7.07577 5.07133 7.49225 4.86949 7.97952C4.66766 8.46679 4.61485 9.00296 4.71774 9.52025C4.82064 10.0375 5.07461 10.5127 5.44755 10.8856C5.82049 11.2586 6.29565 11.5125 6.81293 11.6154C7.33021 11.7183 7.86639 11.6655 8.35366 11.4637C8.84093 11.2619 9.25741 10.9201 9.55042 10.4815C9.84344 10.043 9.99984 9.52742 9.99984 9.00001C9.99984 8.29276 9.71889 7.61448 9.21879 7.11439C8.71869 6.61429 8.04041 6.33334 7.33317 6.33334ZM7.33317 10.3333C7.06946 10.3333 6.81168 10.2551 6.59241 10.1086C6.37315 9.96212 6.20225 9.75388 6.10133 9.51025C6.00041 9.26661 5.97401 8.99853 6.02546 8.73988C6.0769 8.48124 6.20389 8.24367 6.39036 8.0572C6.57683 7.87073 6.81441 7.74374 7.07305 7.69229C7.33169 7.64084 7.59978 7.66725 7.84342 7.76817C8.08705 7.86908 8.29529 8.03998 8.4418 8.25924C8.58831 8.47851 8.6665 8.7363 8.6665 9.00001C8.6665 9.35363 8.52603 9.69277 8.27598 9.94281C8.02593 10.1929 7.68679 10.3333 7.33317 10.3333ZM14.6665 3.00001H13.9998V2.33334C13.9998 2.15653 13.9296 1.98696 13.8046 1.86193C13.6796 1.73691 13.51 1.66667 13.3332 1.66667C13.1564 1.66667 12.9868 1.73691 12.8618 1.86193C12.7367 1.98696 12.6665 2.15653 12.6665 2.33334V3.00001H11.9998C11.823 3.00001 11.6535 3.07024 11.5284 3.19527C11.4034 3.32029 11.3332 3.48986 11.3332 3.66667C11.3332 3.84348 11.4034 4.01305 11.5284 4.13808C11.6535 4.2631 11.823 4.33334 11.9998 4.33334H12.6665V5.00001C12.6665 5.17682 12.7367 5.34639 12.8618 5.47141C12.9868 5.59643 13.1564 5.66667 13.3332 5.66667C13.51 5.66667 13.6796 5.59643 13.8046 5.47141C13.9296 5.34639 13.9998 5.17682 13.9998 5.00001V4.33334H14.6665C14.8433 4.33334 15.0129 4.2631 15.1379 4.13808C15.2629 4.01305 15.3332 3.84348 15.3332 3.66667C15.3332 3.48986 15.2629 3.32029 15.1379 3.19527C15.0129 3.07024 14.8433 3.00001 14.6665 3.00001Z" fill="current"/>
</svg>
