<svg width="16" height="16" viewBox="0 0 16 16" fill="current" xmlns="http://www.w3.org/2000/svg">
<path d="M3.3335 12H6.16016C6.2479 12.0005 6.33488 11.9837 6.4161 11.9505C6.49732 11.9173 6.5712 11.8685 6.6335 11.8067L11.2468 7.18667L13.1402 5.33333C13.2026 5.27136 13.2522 5.19762 13.2861 5.11638C13.3199 5.03515 13.3374 4.94801 13.3374 4.86C13.3374 4.77199 13.3199 4.68485 13.2861 4.60362C13.2522 4.52238 13.2026 4.44864 13.1402 4.38667L10.3135 1.52667C10.2515 1.46418 10.1778 1.41458 10.0965 1.38074C10.0153 1.34689 9.92817 1.32947 9.84016 1.32947C9.75215 1.32947 9.66502 1.34689 9.58378 1.38074C9.50254 1.41458 9.4288 1.46418 9.36683 1.52667L7.48683 3.41333L2.86016 8.03333C2.79838 8.09563 2.74949 8.1695 2.71632 8.25073C2.68314 8.33195 2.66632 8.41893 2.66683 8.50667V11.3333C2.66683 11.5101 2.73707 11.6797 2.86209 11.8047C2.98712 11.9298 3.15668 12 3.3335 12ZM9.84016 2.94L11.7268 4.82667L10.7802 5.77333L8.8935 3.88667L9.84016 2.94ZM4.00016 8.78L7.9535 4.82667L9.84016 6.71333L5.88683 10.6667H4.00016V8.78ZM14.0002 13.3333H2.00016C1.82335 13.3333 1.65378 13.4036 1.52876 13.5286C1.40373 13.6536 1.3335 13.8232 1.3335 14C1.3335 14.1768 1.40373 14.3464 1.52876 14.4714C1.65378 14.5964 1.82335 14.6667 2.00016 14.6667H14.0002C14.177 14.6667 14.3465 14.5964 14.4716 14.4714C14.5966 14.3464 14.6668 14.1768 14.6668 14C14.6668 13.8232 14.5966 13.6536 14.4716 13.5286C14.3465 13.4036 14.177 13.3333 14.0002 13.3333Z" fill="current"/>
</svg>
