<svg width="16" height="16" viewBox="0 0 16 16" fill="current" xmlns="http://www.w3.org/2000/svg">
<path d="M4.53616 9.99999C4.44775 9.84688 4.30214 9.73515 4.13136 9.68939C3.96058 9.64364 3.77862 9.66759 3.6255 9.75599L2.47083 10.4227C2.31896 10.5117 2.20847 10.6572 2.16347 10.8274C2.11847 10.9976 2.14262 11.1787 2.23065 11.3311C2.31867 11.4836 2.46342 11.595 2.63332 11.6412C2.80321 11.6873 2.98446 11.6643 3.1375 11.5773L4.29216 10.9107C4.44528 10.8223 4.557 10.6766 4.60276 10.5059C4.64852 10.3351 4.62456 10.1531 4.53616 9.99999ZM2.47083 5.57733L3.6255 6.24399C3.70134 6.28846 3.78524 6.31748 3.87235 6.32939C3.95946 6.3413 4.04806 6.33587 4.13306 6.31339C4.21806 6.29092 4.29777 6.25186 4.36762 6.19845C4.43746 6.14505 4.49604 6.07835 4.54 6.00221C4.58397 5.92607 4.61243 5.84199 4.62376 5.7548C4.6351 5.66762 4.62907 5.57905 4.60604 5.4942C4.583 5.40935 4.54341 5.3299 4.48954 5.26041C4.43567 5.19093 4.36859 5.13278 4.29216 5.08933L3.1375 4.42266C2.98446 4.33565 2.80321 4.3127 2.63332 4.35883C2.46342 4.40495 2.31867 4.51641 2.23065 4.66887C2.14262 4.82132 2.11847 5.00241 2.16347 5.17261C2.20847 5.3428 2.31896 5.48829 2.47083 5.57733V5.57733ZM4.00016 7.99999C4.00016 7.82318 3.92992 7.65361 3.8049 7.52859C3.67988 7.40357 3.51031 7.33333 3.3335 7.33333H2.00016C1.82335 7.33333 1.65378 7.40357 1.52876 7.52859C1.40373 7.65361 1.3335 7.82318 1.3335 7.99999C1.3335 8.17681 1.40373 8.34637 1.52876 8.4714C1.65378 8.59642 1.82335 8.66666 2.00016 8.66666H3.3335C3.51031 8.66666 3.67988 8.59642 3.8049 8.4714C3.92992 8.34637 4.00016 8.17681 4.00016 7.99999ZM11.4642 5.99999C11.5526 6.15311 11.6982 6.26484 11.869 6.31059C12.0397 6.35635 12.2217 6.3324 12.3748 6.24399L13.5295 5.57733C13.6059 5.53387 13.673 5.47573 13.7269 5.40624C13.7807 5.33676 13.8203 5.2573 13.8434 5.17246C13.8664 5.08761 13.8724 4.99904 13.8611 4.91185C13.8498 4.82467 13.8213 4.74058 13.7773 4.66444C13.7334 4.5883 13.6748 4.52161 13.6049 4.4682C13.5351 4.4148 13.4554 4.37573 13.3704 4.35326C13.2854 4.33079 13.1968 4.32535 13.1097 4.33726C13.0226 4.34917 12.9387 4.3782 12.8628 4.42266L11.7082 5.08933C11.555 5.17774 11.4433 5.32335 11.3976 5.49413C11.3518 5.66491 11.3758 5.84688 11.4642 5.99999V5.99999ZM10.0002 4.53599C10.1533 4.6244 10.3352 4.64835 10.506 4.60259C10.6768 4.55684 10.8224 4.44511 10.9108 4.29199L11.5775 3.13733C11.622 3.06148 11.651 2.97759 11.6629 2.89048C11.6748 2.80337 11.6694 2.71476 11.6469 2.62976C11.6244 2.54476 11.5854 2.46505 11.532 2.39521C11.4785 2.32537 11.4119 2.26678 11.3357 2.22282C11.2596 2.17886 11.1755 2.15039 11.0883 2.13906C11.0011 2.12773 10.9125 2.13375 10.8277 2.15679C10.7429 2.17982 10.6634 2.21942 10.5939 2.27328C10.5244 2.32715 10.4663 2.39423 10.4228 2.47066L9.75616 3.62533C9.66776 3.77845 9.6438 3.96041 9.68956 4.13119C9.73532 4.30198 9.84705 4.44759 10.0002 4.53599ZM13.5295 10.4227L12.3748 9.75599C12.299 9.71153 12.2151 9.68251 12.128 9.6706C12.0409 9.65868 11.9523 9.66412 11.8673 9.6866C11.7823 9.70907 11.7025 9.74813 11.6327 9.80154C11.5629 9.85494 11.5043 9.92164 11.4603 9.99778C11.4164 10.0739 11.3879 10.158 11.3766 10.2452C11.3652 10.3324 11.3713 10.4209 11.3943 10.5058C11.4173 10.5906 11.4569 10.6701 11.5108 10.7396C11.5647 10.8091 11.6317 10.8672 11.7082 10.9107L12.8628 11.5773C13.0159 11.6643 13.1971 11.6873 13.367 11.6412C13.5369 11.595 13.6817 11.4836 13.7697 11.3311C13.8577 11.1787 13.8819 10.9976 13.8369 10.8274C13.7919 10.6572 13.6814 10.5117 13.5295 10.4227ZM10.9108 11.708C10.8674 11.6316 10.8092 11.5645 10.7397 11.5106C10.6703 11.4567 10.5908 11.4172 10.506 11.3941C10.4211 11.3711 10.3325 11.3651 10.2454 11.3764C10.1582 11.3877 10.0741 11.4162 9.99794 11.4602C9.9218 11.5041 9.85511 11.5627 9.8017 11.6325C9.7483 11.7024 9.70924 11.7821 9.68676 11.8671C9.66429 11.9521 9.65885 12.0407 9.67076 12.1278C9.68267 12.2149 9.7117 12.2988 9.75616 12.3747L10.4228 13.5293C10.4663 13.6058 10.5244 13.6728 10.5939 13.7267C10.6634 13.7806 10.7429 13.8202 10.8277 13.8432C10.9125 13.8662 11.0011 13.8723 11.0883 13.8609C11.1755 13.8496 11.2596 13.8211 11.3357 13.7772C11.4119 13.7332 11.4785 13.6746 11.532 13.6048C11.5854 13.5349 11.6244 13.4552 11.6469 13.3702C11.6694 13.2852 11.6748 13.1966 11.6629 13.1095C11.651 13.0224 11.622 12.9385 11.5775 12.8627L10.9108 11.708ZM14.0002 7.33333H12.6668C12.49 7.33333 12.3204 7.40357 12.1954 7.52859C12.0704 7.65361 12.0002 7.82318 12.0002 7.99999C12.0002 8.17681 12.0704 8.34637 12.1954 8.4714C12.3204 8.59642 12.49 8.66666 12.6668 8.66666H14.0002C14.177 8.66666 14.3465 8.59642 14.4716 8.4714C14.5966 8.34637 14.6668 8.17681 14.6668 7.99999C14.6668 7.82318 14.5966 7.65361 14.4716 7.52859C14.3465 7.40357 14.177 7.33333 14.0002 7.33333ZM8.00016 12C7.82335 12 7.65378 12.0702 7.52876 12.1953C7.40373 12.3203 7.3335 12.4898 7.3335 12.6667V14C7.3335 14.1768 7.40373 14.3464 7.52876 14.4714C7.65378 14.5964 7.82335 14.6667 8.00016 14.6667C8.17697 14.6667 8.34654 14.5964 8.47157 14.4714C8.59659 14.3464 8.66683 14.1768 8.66683 14V12.6667C8.66683 12.4898 8.59659 12.3203 8.47157 12.1953C8.34654 12.0702 8.17697 12 8.00016 12ZM6.00016 11.464C5.84704 11.3756 5.66508 11.3516 5.4943 11.3974C5.32351 11.4432 5.1779 11.5549 5.0895 11.708L4.42283 12.8627C4.33582 13.0157 4.31287 13.1969 4.359 13.3668C4.40512 13.5367 4.51657 13.6815 4.66903 13.7695C4.82149 13.8575 5.00258 13.8817 5.17277 13.8367C5.34297 13.7917 5.48846 13.6812 5.5775 13.5293L6.24416 12.3747C6.33256 12.2215 6.35652 12.0396 6.31076 11.8688C6.265 11.698 6.15328 11.5524 6.00016 11.464ZM8.00016 1.33333C7.82335 1.33333 7.65378 1.40357 7.52876 1.52859C7.40373 1.65361 7.3335 1.82318 7.3335 1.99999V3.33333C7.3335 3.51014 7.40373 3.67971 7.52876 3.80473C7.65378 3.92976 7.82335 3.99999 8.00016 3.99999C8.17697 3.99999 8.34654 3.92976 8.47157 3.80473C8.59659 3.67971 8.66683 3.51014 8.66683 3.33333V1.99999C8.66683 1.82318 8.59659 1.65361 8.47157 1.52859C8.34654 1.40357 8.17697 1.33333 8.00016 1.33333V1.33333Z" fill="current"/>
</svg>
