<svg width="16" height="16" viewBox="0 0 16 16" fill="current" xmlns="http://www.w3.org/2000/svg">
<path d="M14.4915 2.50066L12.8782 0.88733C12.7531 0.762349 12.5836 0.692139 12.4068 0.692139C12.2301 0.692139 12.0605 0.762349 11.9355 0.88733L8.88216 3.94066C8.75713 4.06566 8.68687 4.2352 8.68683 4.412V6.02533C8.68683 6.20214 8.75707 6.37171 8.88209 6.49673C9.00712 6.62176 9.17669 6.692 9.3535 6.692H10.9668C11.1436 6.69196 11.3132 6.6217 11.4382 6.49666L14.4915 3.44333C14.6165 3.31831 14.6867 3.14877 14.6867 2.972C14.6867 2.79522 14.6165 2.62568 14.4915 2.50066ZM10.6915 5.35866H10.0202V4.688L12.4068 2.30133L13.0775 2.972L10.6915 5.35866ZM12.6668 7.33333C12.49 7.33333 12.3204 7.40357 12.1954 7.52859C12.0704 7.65362 12.0002 7.82319 12.0002 8V9.59466L11.0135 8.608C10.666 8.26094 10.195 8.06601 9.70383 8.06601C9.21271 8.06601 8.74166 8.26094 8.39416 8.608L7.92883 9.07266L6.2715 7.41533C5.92439 7.0688 5.45397 6.87418 4.9635 6.87418C4.47303 6.87418 4.0026 7.0688 3.6555 7.41533L2.66683 8.404V4.66666C2.66701 4.48991 2.7373 4.32044 2.86229 4.19545C2.98727 4.07047 3.15674 4.00017 3.3335 4H7.3335C7.51031 4 7.67988 3.92976 7.8049 3.80473C7.92992 3.67971 8.00016 3.51014 8.00016 3.33333C8.00016 3.15652 7.92992 2.98695 7.8049 2.86193C7.67988 2.7369 7.51031 2.66666 7.3335 2.66666H3.3335C2.80323 2.66719 2.29483 2.87808 1.91987 3.25303C1.54491 3.62799 1.33403 4.13639 1.3335 4.66666V12.6667C1.33403 13.1969 1.54491 13.7053 1.91987 14.0803C2.29483 14.4552 2.80323 14.6661 3.3335 14.6667H11.3335C11.8638 14.6661 12.3722 14.4552 12.7471 14.0803C13.1221 13.7053 13.333 13.1969 13.3335 12.6667V8C13.3335 7.82319 13.2633 7.65362 13.1382 7.52859C13.0132 7.40357 12.8436 7.33333 12.6668 7.33333ZM3.3335 13.3333C3.15674 13.3332 2.98727 13.2629 2.86229 13.1379C2.7373 13.0129 2.66701 12.8434 2.66683 12.6667V10.2893L4.59816 8.358C4.69707 8.265 4.82773 8.21322 4.9635 8.21322C5.09926 8.21322 5.22992 8.265 5.32883 8.358L7.44083 10.4693C7.44683 10.476 7.44883 10.484 7.45416 10.4893L10.2988 13.3333H3.3335ZM12.0002 12.6667C11.9968 12.7952 11.9553 12.9198 11.8808 13.0247L8.8715 10.0153L9.33683 9.55C9.43426 9.4531 9.56609 9.39872 9.7035 9.39872C9.84091 9.39872 9.97273 9.4531 10.0702 9.55L12.0002 11.48V12.6667Z" fill="current"/>
</svg>
