<svg width="16" height="16" viewBox="0 0 16 16" fill="none" xmlns="http://www.w3.org/2000/svg">
<path d="M10.0655 8.42266L8.66683 7.61533V4.66666C8.66683 4.48985 8.59659 4.32028 8.47157 4.19526C8.34655 4.07023 8.17698 3.99999 8.00017 3.99999C7.82336 3.99999 7.65379 4.07023 7.52876 4.19526C7.40374 4.32028 7.3335 4.48985 7.3335 4.66666V7.99999C7.3335 8.11702 7.36431 8.23198 7.42282 8.33332C7.48133 8.43466 7.56549 8.51882 7.66683 8.57733L9.39883 9.57733C9.47468 9.62179 9.55857 9.65082 9.64568 9.66273C9.73279 9.67464 9.8214 9.6692 9.9064 9.64673C9.9914 9.62425 10.0711 9.58519 10.141 9.53179C10.2108 9.47838 10.2694 9.41169 10.3133 9.33555C10.3573 9.25941 10.3858 9.17532 10.3971 9.08813C10.4084 9.00095 10.4024 8.91238 10.3794 8.82753C10.3563 8.74268 10.3167 8.66323 10.2629 8.59375C10.209 8.52426 10.1419 8.46612 10.0655 8.42266ZM8.00017 1.33333C6.68162 1.33333 5.39269 1.72432 4.29636 2.45686C3.20004 3.18941 2.34555 4.2306 1.84097 5.44877C1.33638 6.66695 1.20436 8.00739 1.4616 9.3006C1.71883 10.5938 2.35377 11.7817 3.28612 12.714C4.21847 13.6464 5.40636 14.2813 6.69956 14.5386C7.99277 14.7958 9.33322 14.6638 10.5514 14.1592C11.7696 13.6546 12.8108 12.8001 13.5433 11.7038C14.2758 10.6075 14.6668 9.31854 14.6668 7.99999C14.6649 6.23248 13.9619 4.53792 12.7121 3.28809C11.4622 2.03827 9.76768 1.33527 8.00017 1.33333ZM8.00017 13.3333C6.94533 13.3333 5.91419 13.0205 5.03712 12.4345C4.16006 11.8485 3.47648 11.0155 3.07281 10.041C2.66914 9.06643 2.56352 7.99408 2.76931 6.95951C2.9751 5.92495 3.48305 4.97464 4.22893 4.22876C4.97481 3.48288 5.92512 2.97493 6.95968 2.76914C7.99425 2.56335 9.06661 2.66897 10.0411 3.07264C11.0157 3.4763 11.8486 4.15989 12.4347 5.03695C13.0207 5.91402 13.3335 6.94516 13.3335 7.99999C13.3317 9.41394 12.7693 10.7695 11.7695 11.7693C10.7696 12.7691 9.41411 13.3316 8.00017 13.3333Z" fill="#18191F"/>
</svg>
