<svg width="16" height="16" viewBox="0 0 16 16" fill="none" xmlns="http://www.w3.org/2000/svg">
<path d="M7.29329 4.05334C7.52714 4.0175 7.76339 3.99967 7.99996 4.00001C10.12 4.00001 12.1133 5.52667 13.2733 8.00001C13.0959 8.3764 12.8955 8.74153 12.6733 9.09334C12.6027 9.20255 12.5657 9.33 12.5666 9.46001C12.5681 9.6055 12.6172 9.74651 12.7063 9.86152C12.7954 9.97654 12.9197 10.0592 13.0602 10.097C13.2007 10.1348 13.3497 10.1256 13.4845 10.0707C13.6193 10.0159 13.7324 9.91848 13.8066 9.79334C14.1172 9.30529 14.3871 8.79244 14.6133 8.26001C14.6491 8.17682 14.6675 8.08722 14.6675 7.99667C14.6675 7.90612 14.6491 7.81653 14.6133 7.73334C13.2666 4.60667 10.7333 2.66667 7.99996 2.66667C7.68707 2.6651 7.37468 2.69187 7.06663 2.74667C6.97908 2.76156 6.89532 2.79354 6.82013 2.84079C6.74494 2.88804 6.6798 2.94964 6.62842 3.02207C6.57704 3.0945 6.54042 3.17634 6.52067 3.26292C6.50092 3.3495 6.49841 3.43913 6.51329 3.52667C6.52818 3.61422 6.56016 3.69798 6.60741 3.77317C6.65467 3.84836 6.71627 3.9135 6.7887 3.96488C6.86112 4.01626 6.94297 4.05288 7.02954 4.07263C7.11612 4.09238 7.20575 4.09489 7.29329 4.08001V4.05334ZM2.47329 1.52667C2.41114 1.46451 2.33734 1.41521 2.25613 1.38157C2.17491 1.34793 2.08787 1.33061 1.99996 1.33061C1.91205 1.33061 1.82501 1.34793 1.74379 1.38157C1.66258 1.41521 1.58879 1.46451 1.52663 1.52667C1.40109 1.65221 1.33057 1.82247 1.33057 2.00001C1.33057 2.17754 1.40109 2.3478 1.52663 2.47334L3.59329 4.53334C2.65034 5.44103 1.89987 6.52933 1.38663 7.73334C1.34992 7.81745 1.33097 7.90823 1.33097 8.00001C1.33097 8.09178 1.34992 8.18256 1.38663 8.26667C2.73329 11.3933 5.26663 13.3333 7.99996 13.3333C9.19803 13.3251 10.3678 12.9683 11.3666 12.3067L13.5266 14.4733C13.5886 14.5358 13.6623 14.5854 13.7436 14.6193C13.8248 14.6531 13.912 14.6705 14 14.6705C14.088 14.6705 14.1751 14.6531 14.2563 14.6193C14.3376 14.5854 14.4113 14.5358 14.4733 14.4733C14.5358 14.4114 14.5854 14.3376 14.6192 14.2564C14.6531 14.1752 14.6705 14.088 14.6705 14C14.6705 13.912 14.6531 13.8249 14.6192 13.7436C14.5854 13.6624 14.5358 13.5886 14.4733 13.5267L2.47329 1.52667ZM6.71329 7.65334L8.34663 9.28667C8.23395 9.31898 8.11717 9.3347 7.99996 9.33334C7.64634 9.33334 7.3072 9.19286 7.05715 8.94282C6.8071 8.69277 6.66663 8.35363 6.66663 8.00001C6.66526 7.8828 6.68098 7.76602 6.71329 7.65334ZM7.99996 12C5.87996 12 3.88663 10.4733 2.73329 8.00001C3.16402 7.04917 3.77534 6.19106 4.53329 5.47334L5.71329 6.66667C5.43613 7.17254 5.33045 7.75464 5.41213 8.32564C5.49381 8.89665 5.75844 9.42578 6.16631 9.83366C6.57419 10.2415 7.10331 10.5062 7.67432 10.5878C8.24533 10.6695 8.82743 10.5638 9.33329 10.2867L10.3933 11.3333C9.66736 11.7606 8.84224 11.9904 7.99996 12Z" fill="#18191F"/>
</svg>
