<svg width="16" height="16" viewBox="0 0 16 16" fill="none" xmlns="http://www.w3.org/2000/svg">
<path d="M12.4735 4.80667C12.4115 4.74418 12.3378 4.69458 12.2565 4.66074C12.1753 4.62689 12.0881 4.60947 12.0001 4.60947C11.9121 4.60947 11.825 4.62689 11.7437 4.66074C11.6625 4.69458 11.5888 4.74418 11.5268 4.80667L6.56013 9.78L4.47346 7.68667C4.40911 7.62451 4.33315 7.57563 4.24992 7.54283C4.16668 7.51003 4.0778 7.49394 3.98834 7.49549C3.89889 7.49703 3.81062 7.51619 3.72857 7.55185C3.64651 7.58751 3.57229 7.63898 3.51013 7.70333C3.44797 7.76768 3.39909 7.84364 3.36629 7.92688C3.33349 8.01011 3.3174 8.099 3.31895 8.18845C3.3205 8.2779 3.33965 8.36618 3.37531 8.44823C3.41097 8.53028 3.46245 8.60451 3.5268 8.66667L6.0868 11.2267C6.14877 11.2892 6.22251 11.3387 6.30375 11.3726C6.38498 11.4064 6.47212 11.4239 6.56013 11.4239C6.64814 11.4239 6.73527 11.4064 6.81651 11.3726C6.89775 11.3387 6.97149 11.2892 7.03346 11.2267L12.4735 5.78667C12.5411 5.72424 12.5951 5.64847 12.6321 5.56414C12.669 5.4798 12.6881 5.38873 12.6881 5.29667C12.6881 5.2046 12.669 5.11353 12.6321 5.02919C12.5951 4.94486 12.5411 4.86909 12.4735 4.80667Z" fill="#5BE26A"/>
</svg>
