<svg width="16" height="16" viewBox="0 0 16 16" fill="current" xmlns="http://www.w3.org/2000/svg">
<path d="M6.66667 12C6.84348 12 7.01305 11.9298 7.13807 11.8047C7.2631 11.6797 7.33333 11.5101 7.33333 11.3333V7.33333C7.33333 7.15652 7.2631 6.98695 7.13807 6.86192C7.01305 6.7369 6.84348 6.66666 6.66667 6.66666C6.48986 6.66666 6.32029 6.7369 6.19526 6.86192C6.07024 6.98695 6 7.15652 6 7.33333V11.3333C6 11.5101 6.07024 11.6797 6.19526 11.8047C6.32029 11.9298 6.48986 12 6.66667 12ZM13.3333 3.99999H10.6667V3.33333C10.6667 2.8029 10.456 2.29419 10.0809 1.91911C9.70581 1.54404 9.1971 1.33333 8.66667 1.33333H7.33333C6.8029 1.33333 6.29419 1.54404 5.91912 1.91911C5.54405 2.29419 5.33333 2.8029 5.33333 3.33333V3.99999H2.66667C2.48986 3.99999 2.32029 4.07023 2.19526 4.19526C2.07024 4.32028 2 4.48985 2 4.66666C2 4.84347 2.07024 5.01304 2.19526 5.13807C2.32029 5.26309 2.48986 5.33333 2.66667 5.33333H3.33333V12.6667C3.33333 13.1971 3.54405 13.7058 3.91912 14.0809C4.29419 14.4559 4.8029 14.6667 5.33333 14.6667H10.6667C11.1971 14.6667 11.7058 14.4559 12.0809 14.0809C12.456 13.7058 12.6667 13.1971 12.6667 12.6667V5.33333H13.3333C13.5101 5.33333 13.6797 5.26309 13.8047 5.13807C13.9298 5.01304 14 4.84347 14 4.66666C14 4.48985 13.9298 4.32028 13.8047 4.19526C13.6797 4.07023 13.5101 3.99999 13.3333 3.99999ZM6.66667 3.33333C6.66667 3.15652 6.7369 2.98695 6.86193 2.86192C6.98695 2.7369 7.15652 2.66666 7.33333 2.66666H8.66667C8.84348 2.66666 9.01305 2.7369 9.13807 2.86192C9.2631 2.98695 9.33333 3.15652 9.33333 3.33333V3.99999H6.66667V3.33333ZM11.3333 12.6667C11.3333 12.8435 11.2631 13.013 11.1381 13.1381C11.013 13.2631 10.8435 13.3333 10.6667 13.3333H5.33333C5.15652 13.3333 4.98695 13.2631 4.86193 13.1381C4.7369 13.013 4.66667 12.8435 4.66667 12.6667V5.33333H11.3333V12.6667ZM9.33333 12C9.51014 12 9.67971 11.9298 9.80474 11.8047C9.92976 11.6797 10 11.5101 10 11.3333V7.33333C10 7.15652 9.92976 6.98695 9.80474 6.86192C9.67971 6.7369 9.51014 6.66666 9.33333 6.66666C9.15652 6.66666 8.98695 6.7369 8.86193 6.86192C8.73691 6.98695 8.66667 7.15652 8.66667 7.33333V11.3333C8.66667 11.5101 8.73691 11.6797 8.86193 11.8047C8.98695 11.9298 9.15652 12 9.33333 12Z" fill="current"/>
</svg>
