<svg width="16" height="16" viewBox="0 0 16 16" fill="current" xmlns="http://www.w3.org/2000/svg">
<path d="M8.93996 8L11.8066 5.14C11.9322 5.01446 12.0027 4.8442 12.0027 4.66666C12.0027 4.48913 11.9322 4.31887 11.8066 4.19333C11.6811 4.06779 11.5108 3.99727 11.3333 3.99727C11.1558 3.99727 10.9855 4.06779 10.86 4.19333L7.99996 7.06L5.13996 4.19333C5.01442 4.06779 4.84416 3.99727 4.66663 3.99727C4.48909 3.99727 4.31883 4.06779 4.19329 4.19333C4.06776 4.31887 3.99723 4.48913 3.99723 4.66666C3.99723 4.8442 4.06776 5.01446 4.19329 5.14L7.05996 8L4.19329 10.86C4.13081 10.922 4.08121 10.9957 4.04737 11.0769C4.01352 11.1582 3.99609 11.2453 3.99609 11.3333C3.99609 11.4213 4.01352 11.5085 4.04737 11.5897C4.08121 11.671 4.13081 11.7447 4.19329 11.8067C4.25527 11.8691 4.329 11.9187 4.41024 11.9526C4.49148 11.9864 4.57862 12.0039 4.66663 12.0039C4.75463 12.0039 4.84177 11.9864 4.92301 11.9526C5.00425 11.9187 5.07798 11.8691 5.13996 11.8067L7.99996 8.94L10.86 11.8067C10.9219 11.8691 10.9957 11.9187 11.0769 11.9526C11.1581 11.9864 11.2453 12.0039 11.3333 12.0039C11.4213 12.0039 11.5084 11.9864 11.5897 11.9526C11.6709 11.9187 11.7447 11.8691 11.8066 11.8067C11.8691 11.7447 11.9187 11.671 11.9526 11.5897C11.9864 11.5085 12.0038 11.4213 12.0038 11.3333C12.0038 11.2453 11.9864 11.1582 11.9526 11.0769C11.9187 10.9957 11.8691 10.922 11.8066 10.86L8.93996 8Z" fill="current"/>
</svg>
