<svg width="16" height="16" viewBox="0 0 16 16" fill="none" xmlns="http://www.w3.org/2000/svg">
<path d="M11.3335 6.11333C11.2086 5.98916 11.0396 5.91946 10.8635 5.91946C10.6873 5.91946 10.5184 5.98916 10.3935 6.11333L8.00013 8.47333L5.64013 6.11333C5.51522 5.98916 5.34625 5.91946 5.17013 5.91946C4.994 5.91946 4.82504 5.98916 4.70013 6.11333C4.63764 6.1753 4.58805 6.24904 4.5542 6.33027C4.52036 6.41151 4.50293 6.49865 4.50293 6.58666C4.50293 6.67467 4.52036 6.7618 4.5542 6.84304C4.58805 6.92428 4.63764 6.99802 4.70013 7.05999L7.52679 9.88666C7.58877 9.94914 7.6625 9.99874 7.74374 10.0326C7.82498 10.0664 7.91212 10.0839 8.00013 10.0839C8.08814 10.0839 8.17527 10.0664 8.25651 10.0326C8.33775 9.99874 8.41149 9.94914 8.47346 9.88666L11.3335 7.05999C11.3959 6.99802 11.4455 6.92428 11.4794 6.84304C11.5132 6.7618 11.5307 6.67467 11.5307 6.58666C11.5307 6.49865 11.5132 6.41151 11.4794 6.33027C11.4455 6.24904 11.3959 6.1753 11.3335 6.11333Z" fill="#18191F"/>
</svg>
