<svg width="16" height="16" viewBox="0 0 16 16" fill="current" xmlns="http://www.w3.org/2000/svg">
<path d="M8.00016 12.6667C8.13202 12.6667 8.26091 12.6276 8.37054 12.5543C8.48018 12.4811 8.56562 12.3769 8.61608 12.2551C8.66654 12.1333 8.67974 11.9993 8.65402 11.8699C8.6283 11.7406 8.5648 11.6218 8.47157 11.5286C8.37833 11.4354 8.25954 11.3719 8.13022 11.3461C8.0009 11.3204 7.86686 11.3336 7.74504 11.3841C7.62322 11.4345 7.5191 11.52 7.44585 11.6296C7.3726 11.7393 7.3335 11.8682 7.3335 12C7.3335 12.1768 7.40373 12.3464 7.52876 12.4714C7.65378 12.5964 7.82335 12.6667 8.00016 12.6667ZM11.3335 12.6667C11.4654 12.6667 11.5942 12.6276 11.7039 12.5543C11.8135 12.4811 11.899 12.3769 11.9494 12.2551C11.9999 12.1333 12.0131 11.9993 11.9874 11.8699C11.9616 11.7406 11.8981 11.6218 11.8049 11.5286C11.7117 11.4354 11.5929 11.3719 11.4636 11.3461C11.3342 11.3204 11.2002 11.3336 11.0784 11.3841C10.9566 11.4345 10.8524 11.52 10.7792 11.6296C10.7059 11.7393 10.6668 11.8682 10.6668 12C10.6668 12.1768 10.7371 12.3464 10.8621 12.4714C10.9871 12.5964 11.1567 12.6667 11.3335 12.6667ZM11.3335 10C11.4654 10 11.5942 9.96091 11.7039 9.88765C11.8135 9.8144 11.899 9.71028 11.9494 9.58846C11.9999 9.46664 12.0131 9.3326 11.9874 9.20328C11.9616 9.07396 11.8981 8.95517 11.8049 8.86193C11.7117 8.7687 11.5929 8.7052 11.4636 8.67948C11.3342 8.65376 11.2002 8.66696 11.0784 8.71742C10.9566 8.76788 10.8524 8.85333 10.7792 8.96296C10.7059 9.07259 10.6668 9.20148 10.6668 9.33334C10.6668 9.51015 10.7371 9.67972 10.8621 9.80474C10.9871 9.92977 11.1567 10 11.3335 10ZM8.00016 10C8.13202 10 8.26091 9.96091 8.37054 9.88765C8.48018 9.8144 8.56562 9.71028 8.61608 9.58846C8.66654 9.46664 8.67974 9.3326 8.65402 9.20328C8.6283 9.07396 8.5648 8.95517 8.47157 8.86193C8.37833 8.7687 8.25954 8.7052 8.13022 8.67948C8.0009 8.65376 7.86686 8.66696 7.74504 8.71742C7.62322 8.76788 7.5191 8.85333 7.44585 8.96296C7.3726 9.07259 7.3335 9.20148 7.3335 9.33334C7.3335 9.51015 7.40373 9.67972 7.52876 9.80474C7.65378 9.92977 7.82335 10 8.00016 10ZM12.6668 2.00001H12.0002V1.33334C12.0002 1.15653 11.9299 0.986958 11.8049 0.861934C11.6799 0.73691 11.5103 0.666672 11.3335 0.666672C11.1567 0.666672 10.9871 0.73691 10.8621 0.861934C10.7371 0.986958 10.6668 1.15653 10.6668 1.33334V2.00001H5.3335V1.33334C5.3335 1.15653 5.26326 0.986958 5.13823 0.861934C5.01321 0.73691 4.84364 0.666672 4.66683 0.666672C4.49002 0.666672 4.32045 0.73691 4.19542 0.861934C4.0704 0.986958 4.00016 1.15653 4.00016 1.33334V2.00001H3.3335C2.80306 2.00001 2.29436 2.21072 1.91928 2.58579C1.54421 2.96086 1.3335 3.46957 1.3335 4.00001V13.3333C1.3335 13.8638 1.54421 14.3725 1.91928 14.7476C2.29436 15.1226 2.80306 15.3333 3.3335 15.3333H12.6668C13.1973 15.3333 13.706 15.1226 14.081 14.7476C14.4561 14.3725 14.6668 13.8638 14.6668 13.3333V4.00001C14.6668 3.46957 14.4561 2.96086 14.081 2.58579C13.706 2.21072 13.1973 2.00001 12.6668 2.00001ZM13.3335 13.3333C13.3335 13.5101 13.2633 13.6797 13.1382 13.8047C13.0132 13.9298 12.8436 14 12.6668 14H3.3335C3.15668 14 2.98712 13.9298 2.86209 13.8047C2.73707 13.6797 2.66683 13.5101 2.66683 13.3333V7.33334H13.3335V13.3333ZM13.3335 6.00001H2.66683V4.00001C2.66683 3.82319 2.73707 3.65363 2.86209 3.5286C2.98712 3.40358 3.15668 3.33334 3.3335 3.33334H4.00016V4.00001C4.00016 4.17682 4.0704 4.34639 4.19542 4.47141C4.32045 4.59643 4.49002 4.66667 4.66683 4.66667C4.84364 4.66667 5.01321 4.59643 5.13823 4.47141C5.26326 4.34639 5.3335 4.17682 5.3335 4.00001V3.33334H10.6668V4.00001C10.6668 4.17682 10.7371 4.34639 10.8621 4.47141C10.9871 4.59643 11.1567 4.66667 11.3335 4.66667C11.5103 4.66667 11.6799 4.59643 11.8049 4.47141C11.9299 4.34639 12.0002 4.17682 12.0002 4.00001V3.33334H12.6668C12.8436 3.33334 13.0132 3.40358 13.1382 3.5286C13.2633 3.65363 13.3335 3.82319 13.3335 4.00001V6.00001ZM4.66683 10C4.79868 10 4.92758 9.96091 5.03721 9.88765C5.14684 9.8144 5.23229 9.71028 5.28275 9.58846C5.33321 9.46664 5.34641 9.3326 5.32069 9.20328C5.29496 9.07396 5.23147 8.95517 5.13823 8.86193C5.045 8.7687 4.92621 8.7052 4.79689 8.67948C4.66757 8.65376 4.53352 8.66696 4.41171 8.71742C4.28989 8.76788 4.18577 8.85333 4.11252 8.96296C4.03926 9.07259 4.00016 9.20148 4.00016 9.33334C4.00016 9.51015 4.0704 9.67972 4.19542 9.80474C4.32045 9.92977 4.49002 10 4.66683 10ZM4.66683 12.6667C4.79868 12.6667 4.92758 12.6276 5.03721 12.5543C5.14684 12.4811 5.23229 12.3769 5.28275 12.2551C5.33321 12.1333 5.34641 11.9993 5.32069 11.8699C5.29496 11.7406 5.23147 11.6218 5.13823 11.5286C5.045 11.4354 4.92621 11.3719 4.79689 11.3461C4.66757 11.3204 4.53352 11.3336 4.41171 11.3841C4.28989 11.4345 4.18577 11.52 4.11252 11.6296C4.03926 11.7393 4.00016 11.8682 4.00016 12C4.00016 12.1768 4.0704 12.3464 4.19542 12.4714C4.32045 12.5964 4.49002 12.6667 4.66683 12.6667Z" fill="current"/>
</svg>
