<svg width="16" height="16" viewBox="0 0 16 16" fill="current" xmlns="http://www.w3.org/2000/svg">
<path d="M12.6665 7.33334H8.6665V3.33334C8.6665 3.15653 8.59627 2.98696 8.47124 2.86193C8.34622 2.73691 8.17665 2.66667 7.99984 2.66667C7.82303 2.66667 7.65346 2.73691 7.52843 2.86193C7.40341 2.98696 7.33317 3.15653 7.33317 3.33334V7.33334H3.33317C3.15636 7.33334 2.98679 7.40358 2.86177 7.5286C2.73674 7.65363 2.6665 7.82319 2.6665 8.00001C2.6665 8.17682 2.73674 8.34639 2.86177 8.47141C2.98679 8.59643 3.15636 8.66667 3.33317 8.66667H7.33317V12.6667C7.33317 12.8435 7.40341 13.0131 7.52843 13.1381C7.65346 13.2631 7.82303 13.3333 7.99984 13.3333C8.17665 13.3333 8.34622 13.2631 8.47124 13.1381C8.59627 13.0131 8.6665 12.8435 8.6665 12.6667V8.66667H12.6665C12.8433 8.66667 13.0129 8.59643 13.1379 8.47141C13.2629 8.34639 13.3332 8.17682 13.3332 8.00001C13.3332 7.82319 13.2629 7.65363 13.1379 7.5286C13.0129 7.40358 12.8433 7.33334 12.6665 7.33334Z" fill="current"/>
</svg>
